<svg xmlns="http://www.w3.org/2000/svg" width="920" height="520" viewBox="0 0 920 520">
<rect width="100%" height="100%" rx="28" fill="#101a2c"/>
<text x="48" y="62" fill="#7f9bb8" font-family="Arial,Segoe UI,sans-serif" font-size="15" font-weight="700" letter-spacing="2">JIRA DELIVERY STRUCTURE</text>
<text x="48" y="102" fill="#ffffff" font-family="Arial,Segoe UI,sans-serif" font-size="30" font-weight="800">Work items by type</text>
<text x="48" y="133" fill="#9db2c8" font-family="Arial,Segoe UI,sans-serif" font-size="16">Historical snapshot captured 10 Aug 2026 · BG-1 to BG-28</text>
<text x="62" y="207" fill="#dce8f4" font-family="Arial,Segoe UI,sans-serif" font-size="22" font-weight="700">Stories</text><rect x="270" y="185" width="550" height="32" rx="16" fill="#1e3046"/><rect x="270" y="185" width="550.0" height="32" rx="16" fill="#4cc9f0"/><text x="848" y="209" fill="#ffffff" font-family="Arial,Segoe UI,sans-serif" font-size="23" font-weight="800">16</text><text x="62" y="279" fill="#dce8f4" font-family="Arial,Segoe UI,sans-serif" font-size="22" font-weight="700">Epics</text><rect x="270" y="257" width="550" height="32" rx="16" fill="#1e3046"/><rect x="270" y="257" width="240.6" height="32" rx="16" fill="#7b8cff"/><text x="848" y="281" fill="#ffffff" font-family="Arial,Segoe UI,sans-serif" font-size="23" font-weight="800">7</text><text x="62" y="351" fill="#dce8f4" font-family="Arial,Segoe UI,sans-serif" font-size="22" font-weight="700">Tasks</text><rect x="270" y="329" width="550" height="32" rx="16" fill="#1e3046"/><rect x="270" y="329" width="103.1" height="32" rx="16" fill="#25d0a6"/><text x="848" y="353" fill="#ffffff" font-family="Arial,Segoe UI,sans-serif" font-size="23" font-weight="800">3</text><text x="62" y="423" fill="#dce8f4" font-family="Arial,Segoe UI,sans-serif" font-size="22" font-weight="700">Bugs</text><rect x="270" y="401" width="550" height="32" rx="16" fill="#1e3046"/><rect x="270" y="401" width="68.8" height="32" rx="16" fill="#f4c95d"/><text x="848" y="425" fill="#ffffff" font-family="Arial,Segoe UI,sans-serif" font-size="23" font-weight="800">2</text>
<text x="48" y="488" fill="#7f9bb8" font-family="Arial,Segoe UI,sans-serif" font-size="15">BG-29 automation and BG-30 known issue were added after this snapshot.</text>
</svg>